<svg width="123" height="125" viewBox="0 0 123 125" fill="none" xmlns="http://www.w3.org/2000/svg">
<circle cx="61.5" cy="61.5" r="60" stroke="#FFD527" stroke-width="3"/>
<circle cx="62" cy="62" r="53.5" stroke="#FFD527" stroke-width="3" stroke-dasharray="6 6"/>
<path d="M14 112C14 103.716 20.7157 97 29 97H94C102.284 97 109 103.716 109 112V125H14V112Z" fill="#FFD527"/>
<g clip-path="url(#clip0_0_1)">
<mask id="mask0_0_1" style="mask-type:luminance" maskUnits="userSpaceOnUse" x="16" y="12" width="88" height="88">
<path d="M104 12H16V100H104V12Z" fill="white"/>
</mask>
<g mask="url(#mask0_0_1)">
<path d="M36.2455 72.8467H83.9525C84.2786 72.8467 84.5434 73.1106 84.5434 73.4372V82.1736C84.5434 82.4997 84.2786 82.764 83.9525 82.764H36.2455C35.9194 82.764 35.6551 82.4997 35.6551 82.1736V73.4376C35.6551 73.1115 35.9194 72.8467 36.2455 72.8467Z" fill="#FFD527"/>
<path d="M36.2455 72.8467H83.9525C84.2786 72.8467 84.5434 73.1106 84.5434 73.4372V82.1736C84.5434 82.4997 84.2786 82.764 83.9525 82.764H36.2455C35.9194 82.764 35.6551 82.4997 35.6551 82.1736V73.4376C35.6551 73.1115 35.9194 72.8467 36.2455 72.8467Z" stroke="#FFD527" stroke-width="0.6"/>
<path d="M36.3858 54.7717H84.0928C84.4189 54.7717 84.6837 55.0356 84.6837 55.3617V64.0981C84.6837 64.4243 84.4193 64.6886 84.0932 64.6886H36.3858C36.0597 64.6886 35.7954 64.4243 35.7954 64.0981V55.3622C35.7954 55.0361 36.0597 54.7717 36.3858 54.7717Z" fill="#FFD527"/>
<path d="M36.3858 54.7717H84.0928C84.4189 54.7717 84.6837 55.0356 84.6837 55.3617V64.0981C84.6837 64.4243 84.4193 64.6886 84.0932 64.6886H36.3858C36.0597 64.6886 35.7954 64.4243 35.7954 64.0981V55.3622C35.7954 55.0361 36.0597 54.7717 36.3858 54.7717Z" stroke="#FFD527" stroke-width="0.6"/>
<path d="M35.7606 37.4717L80.7196 25.6454C81.0358 25.5647 81.3575 25.7551 81.4382 26.0713L83.6038 34.5348C83.6845 34.851 83.4937 35.1726 83.1775 35.2533L38.219 47.0796C37.9028 47.1603 37.5812 46.9695 37.5004 46.6533L35.3348 38.1903C35.2541 37.8745 35.4449 37.5529 35.7606 37.4717Z" fill="#FFD527"/>
<path d="M35.7606 37.4717L80.7196 25.6454C81.0358 25.5647 81.3575 25.7551 81.4382 26.0713L83.6038 34.5348C83.6845 34.851 83.4937 35.1726 83.1775 35.2533L38.219 47.0796C37.9028 47.1603 37.5812 46.9695 37.5004 46.6533L35.3348 38.1903C35.2541 37.8745 35.4449 37.5529 35.7606 37.4717Z" stroke="#FFD527" stroke-width="0.6"/>
</g>
</g>
<defs>
<clipPath id="clip0_0_1">
<rect width="88" height="88" fill="white" transform="translate(16 12)"/>
</clipPath>
</defs>
</svg>
