<svg width="26" height="26" viewBox="0 0 26 26" fill="none" xmlns="http://www.w3.org/2000/svg">
<circle cx="13" cy="13" r="12.5" fill="#FFD527" stroke="black"/>
<path d="M19.6668 20.5V18.8333C19.6668 17.9493 19.3156 17.1014 18.6905 16.4763C18.0654 15.8512 17.2176 15.5 16.3335 15.5H9.66683C8.78277 15.5 7.93493 15.8512 7.30981 16.4763C6.68469 17.1014 6.3335 17.9493 6.3335 18.8333V20.5" fill="black"/>
<path d="M19.6668 20.5V18.8333C19.6668 17.9493 19.3156 17.1014 18.6905 16.4763C18.0654 15.8512 17.2176 15.5 16.3335 15.5H9.66683C8.78277 15.5 7.93493 15.8512 7.30981 16.4763C6.68469 17.1014 6.3335 17.9493 6.3335 18.8333V20.5" stroke="#212121" stroke-width="1.5" stroke-linecap="round" stroke-linejoin="round"/>
<path d="M12.9998 12.1667C14.8408 12.1667 16.3332 10.6743 16.3332 8.83333C16.3332 6.99238 14.8408 5.5 12.9998 5.5C11.1589 5.5 9.6665 6.99238 9.6665 8.83333C9.6665 10.6743 11.1589 12.1667 12.9998 12.1667Z" fill="black" stroke="#212121" stroke-width="1.5" stroke-linecap="round" stroke-linejoin="round"/>
</svg>
